<mxfile host="app.diagrams.net" modified="2022-01-06T15:37:55.155Z" agent="5.0 (Windows NT 10.0; Win64; x64) AppleWebKit/537.36 (KHTML, like Gecko) Chrome/96.0.4664.110 Safari/537.36" etag="LFfaj-EOU3Fo83QO-dBw" version="16.2.2" type="github">
  <diagram id="CRrUcG-OaceEVfoaWrB0" name="Page-1">
    <mxGraphModel dx="537" dy="1702" grid="1" gridSize="10" guides="1" tooltips="1" connect="1" arrows="1" fold="1" page="1" pageScale="1" pageWidth="827" pageHeight="1169" math="0" shadow="0">
      <root>
        <mxCell id="0" />
        <mxCell id="1" parent="0" />
        <mxCell id="pGEqDHzPhv_WXOmqRF8S-2" value="Nhân viên" style="rounded=0;whiteSpace=wrap;html=1;" vertex="1" parent="1">
          <mxGeometry x="40" y="90" width="90" height="30" as="geometry" />
        </mxCell>
        <mxCell id="pGEqDHzPhv_WXOmqRF8S-3" value="" style="rounded=0;whiteSpace=wrap;html=1;" vertex="1" parent="1">
          <mxGeometry x="380" y="160" width="100" height="40" as="geometry" />
        </mxCell>
        <mxCell id="pGEqDHzPhv_WXOmqRF8S-5" value="Đăng nhập" style="ellipse;whiteSpace=wrap;html=1;" vertex="1" parent="1">
          <mxGeometry x="230" y="10" width="90" height="40" as="geometry" />
        </mxCell>
        <mxCell id="pGEqDHzPhv_WXOmqRF8S-6" value="" style="endArrow=classic;html=1;rounded=0;entryX=0;entryY=0.5;entryDx=0;entryDy=0;exitX=0.75;exitY=0;exitDx=0;exitDy=0;" edge="1" parent="1" source="pGEqDHzPhv_WXOmqRF8S-2" target="pGEqDHzPhv_WXOmqRF8S-5">
          <mxGeometry width="50" height="50" relative="1" as="geometry">
            <mxPoint x="250" y="300" as="sourcePoint" />
            <mxPoint x="300" y="250" as="targetPoint" />
          </mxGeometry>
        </mxCell>
        <mxCell id="pGEqDHzPhv_WXOmqRF8S-7" value="" style="endArrow=classic;html=1;rounded=0;entryX=1;entryY=0;entryDx=0;entryDy=0;exitX=0;exitY=1;exitDx=0;exitDy=0;" edge="1" parent="1" source="pGEqDHzPhv_WXOmqRF8S-5" target="pGEqDHzPhv_WXOmqRF8S-2">
          <mxGeometry width="50" height="50" relative="1" as="geometry">
            <mxPoint x="250" y="300" as="sourcePoint" />
            <mxPoint x="300" y="250" as="targetPoint" />
          </mxGeometry>
        </mxCell>
        <mxCell id="pGEqDHzPhv_WXOmqRF8S-13" value="Định danh" style="text;html=1;strokeColor=none;fillColor=none;align=center;verticalAlign=middle;whiteSpace=wrap;rounded=0;rotation=-25;" vertex="1" parent="1">
          <mxGeometry x="120" y="40" width="60" height="30" as="geometry" />
        </mxCell>
        <mxCell id="pGEqDHzPhv_WXOmqRF8S-14" value="Tình trạng đ/n" style="text;html=1;strokeColor=none;fillColor=none;align=center;verticalAlign=middle;whiteSpace=wrap;rounded=0;rotation=-20;" vertex="1" parent="1">
          <mxGeometry x="150" y="70" width="80" height="30" as="geometry" />
        </mxCell>
        <mxCell id="pGEqDHzPhv_WXOmqRF8S-15" value="" style="endArrow=none;html=1;rounded=0;" edge="1" parent="1">
          <mxGeometry width="50" height="50" relative="1" as="geometry">
            <mxPoint x="260" y="-70" as="sourcePoint" />
            <mxPoint x="380" y="-70" as="targetPoint" />
          </mxGeometry>
        </mxCell>
        <mxCell id="pGEqDHzPhv_WXOmqRF8S-16" value="" style="endArrow=none;html=1;rounded=0;" edge="1" parent="1">
          <mxGeometry width="50" height="50" relative="1" as="geometry">
            <mxPoint x="260" y="-40" as="sourcePoint" />
            <mxPoint x="380" y="-40" as="targetPoint" />
          </mxGeometry>
        </mxCell>
        <mxCell id="pGEqDHzPhv_WXOmqRF8S-17" value="Text" style="text;html=1;strokeColor=none;fillColor=none;align=center;verticalAlign=middle;whiteSpace=wrap;rounded=0;" vertex="1" parent="1">
          <mxGeometry x="280" y="-70" width="60" height="30" as="geometry" />
        </mxCell>
        <mxCell id="pGEqDHzPhv_WXOmqRF8S-18" value="" style="endArrow=none;html=1;rounded=0;" edge="1" parent="1">
          <mxGeometry width="50" height="50" relative="1" as="geometry">
            <mxPoint x="354" y="39" as="sourcePoint" />
            <mxPoint x="474" y="39" as="targetPoint" />
          </mxGeometry>
        </mxCell>
        <mxCell id="pGEqDHzPhv_WXOmqRF8S-19" value="" style="endArrow=none;html=1;rounded=0;" edge="1" parent="1">
          <mxGeometry width="50" height="50" relative="1" as="geometry">
            <mxPoint x="354" y="69" as="sourcePoint" />
            <mxPoint x="474" y="69" as="targetPoint" />
          </mxGeometry>
        </mxCell>
        <mxCell id="pGEqDHzPhv_WXOmqRF8S-20" value="Tài khoản" style="text;html=1;strokeColor=none;fillColor=none;align=center;verticalAlign=middle;whiteSpace=wrap;rounded=0;" vertex="1" parent="1">
          <mxGeometry x="384" y="40" width="60" height="30" as="geometry" />
        </mxCell>
        <mxCell id="pGEqDHzPhv_WXOmqRF8S-21" value="Cập nhật thông tin cá nhân" style="ellipse;whiteSpace=wrap;html=1;" vertex="1" parent="1">
          <mxGeometry x="225" y="160" width="100" height="60" as="geometry" />
        </mxCell>
        <mxCell id="pGEqDHzPhv_WXOmqRF8S-22" value="" style="endArrow=classic;html=1;rounded=0;entryX=0;entryY=0;entryDx=0;entryDy=0;exitX=1;exitY=0.5;exitDx=0;exitDy=0;" edge="1" parent="1" source="pGEqDHzPhv_WXOmqRF8S-2" target="pGEqDHzPhv_WXOmqRF8S-21">
          <mxGeometry width="50" height="50" relative="1" as="geometry">
            <mxPoint x="250" y="220" as="sourcePoint" />
            <mxPoint x="300" y="170" as="targetPoint" />
          </mxGeometry>
        </mxCell>
        <mxCell id="pGEqDHzPhv_WXOmqRF8S-23" value="" style="endArrow=classic;html=1;rounded=0;entryX=1;entryY=1;entryDx=0;entryDy=0;exitX=0;exitY=0.5;exitDx=0;exitDy=0;" edge="1" parent="1" source="pGEqDHzPhv_WXOmqRF8S-21" target="pGEqDHzPhv_WXOmqRF8S-2">
          <mxGeometry width="50" height="50" relative="1" as="geometry">
            <mxPoint x="250" y="220" as="sourcePoint" />
            <mxPoint x="300" y="170" as="targetPoint" />
          </mxGeometry>
        </mxCell>
        <mxCell id="pGEqDHzPhv_WXOmqRF8S-24" value="Cập nhật thông tin khách hàng" style="ellipse;whiteSpace=wrap;html=1;" vertex="1" parent="1">
          <mxGeometry x="225" y="270" width="100" height="60" as="geometry" />
        </mxCell>
        <mxCell id="pGEqDHzPhv_WXOmqRF8S-25" value="Cập nhật thông tin hàng hóa" style="ellipse;whiteSpace=wrap;html=1;" vertex="1" parent="1">
          <mxGeometry x="225" y="350" width="100" height="60" as="geometry" />
        </mxCell>
      </root>
    </mxGraphModel>
  </diagram>
</mxfile>
